<svg width="19" height="18" viewBox="0 0 19 18" fill="none" xmlns="http://www.w3.org/2000/svg">
<path d="M18.0018 7.49957H7.32229L17.4393 4.82853C17.535 4.80329 17.6248 4.75934 17.7035 4.69922C17.7822 4.63909 17.8482 4.56398 17.8977 4.47821C17.9472 4.39244 17.9793 4.29772 17.992 4.1995C18.0047 4.10129 17.9978 4.00153 17.9718 3.90599L17.2068 1.09337C17.1015 0.71497 16.8513 0.393279 16.5106 0.197972C16.1698 0.00266446 15.7658 -0.0505362 15.3861 0.049892L1.10829 3.8188C0.918179 3.86814 0.739828 3.95492 0.583674 4.07405C0.427519 4.19318 0.296699 4.34226 0.198873 4.51257C0.100501 4.6808 0.0369444 4.86707 0.0119807 5.06034C-0.0129831 5.25361 0.00115495 5.44992 0.0535548 5.63762L0.751083 8.20835C0.751083 8.22148 0.751083 8.23554 0.751083 8.2496V16.4999C0.751083 16.8978 0.909125 17.2793 1.19044 17.5606C1.47176 17.842 1.8533 18 2.25114 18H17.2518C17.6496 18 18.0311 17.842 18.3125 17.5606C18.5938 17.2793 18.7518 16.8978 18.7518 16.4999V8.2496C18.7518 8.05068 18.6728 7.85991 18.5321 7.71925C18.3915 7.57859 18.2007 7.49957 18.0018 7.49957ZM15.7667 1.49933L16.3292 3.56847L14.2085 4.131L11.5721 2.60843L15.7667 1.49933ZM9.51425 3.14939L12.1506 4.67196L8.68734 5.58606L6.05099 4.06537L9.51425 3.14939ZM2.0702 7.33269L1.50768 5.2626L3.99215 4.60633L6.62851 6.13077L2.0702 7.33269ZM17.2518 16.4999H2.25114V8.99963H17.2518V16.4999Z" fill="#059669"/>
</svg>
