<svg width="94" height="106" viewBox="0 0 94 106" fill="none" xmlns="http://www.w3.org/2000/svg">
<rect x="0.650391" y="0.865234" width="93" height="111" rx="3" fill="white"/>
<rect x="8.42188" y="8.81641" width="50.8008" height="5.42253" rx="2.71126" fill="#E5E7EB"/>
<rect x="18.2051" y="20.4102" width="54.2899" height="2.55527" rx="1.27764" fill="#E5E7EB"/>
<rect x="9.26562" y="19.3105" width="4.96529" height="4.754" rx="2" fill="#E5E7EB"/>
<rect x="18.2051" y="28.5449" width="41.3043" height="2.55527" rx="1.27764" fill="#E5E7EB"/>
<rect x="9.26562" y="27.4453" width="4.96529" height="4.754" rx="2" fill="#E5E7EB"/>
<rect x="18.2051" y="36.6797" width="67.6699" height="2.55527" rx="1.27764" fill="#E5E7EB"/>
<rect x="9.26562" y="35.5801" width="4.96529" height="4.754" rx="2" fill="#E5E7EB"/>
<rect x="18.2051" y="44.8145" width="48.3881" height="2.55527" rx="1.27764" fill="#E5E7EB"/>
<rect x="9.26562" y="43.7148" width="4.96529" height="4.754" rx="2" fill="#E5E7EB"/>
<rect x="8.42188" y="55.9785" width="65.6289" height="5.42253" rx="2.71126" fill="#E5E7EB"/>
<rect x="18.2051" y="67.5723" width="54.2899" height="2.55527" rx="1.27764" fill="#E5E7EB"/>
<rect x="9.26562" y="66.4727" width="4.96529" height="4.754" rx="2" fill="#E5E7EB"/>
<rect x="18.2051" y="75.707" width="41.3043" height="2.55527" rx="1.27764" fill="#E5E7EB"/>
<rect x="9.26562" y="74.6074" width="4.96529" height="4.754" rx="2" fill="#E5E7EB"/>
<rect x="18.2051" y="83.8418" width="67.6699" height="2.55527" rx="1.27764" fill="#E5E7EB"/>
<rect x="9.26562" y="82.7422" width="4.96529" height="4.754" rx="2" fill="#E5E7EB"/>
<rect x="18.2051" y="91.9766" width="48.3881" height="2.55527" rx="1.27764" fill="#E5E7EB"/>
<rect x="9.26562" y="90.877" width="4.96529" height="4.754" rx="2" fill="#E5E7EB"/>
</svg>
