<svg width="44" height="34" viewBox="0 0 44 34" fill="none" xmlns="http://www.w3.org/2000/svg">
<path d="M3.25 2.375V31.625C3.25 32.056 3.07879 32.4693 2.77405 32.774C2.4693 33.0788 2.05598 33.25 1.625 33.25C1.19402 33.25 0.780698 33.0788 0.475952 32.774C0.171205 32.4693 0 32.056 0 31.625V2.375C0 1.94402 0.171205 1.5307 0.475952 1.22595C0.780698 0.921205 1.19402 0.75 1.625 0.75C2.05598 0.75 2.4693 0.921205 2.77405 1.22595C3.07879 1.5307 3.25 1.94402 3.25 2.375ZM21.9375 13.4453L17.875 14.7656V10.5C17.875 10.069 17.7038 9.6557 17.399 9.35095C17.0943 9.04621 16.681 8.875 16.25 8.875C15.819 8.875 15.4057 9.04621 15.101 9.35095C14.7962 9.6557 14.625 10.069 14.625 10.5V14.7656L10.5625 13.4453C10.1525 13.3106 9.70586 13.3443 9.32073 13.539C8.93561 13.7336 8.64359 14.0733 8.50891 14.4833C8.37423 14.8932 8.40792 15.3399 8.60258 15.725C8.79723 16.1102 9.13691 16.4022 9.54688 16.5369L13.6094 17.8552L11.1028 21.3083C10.9703 21.4804 10.8737 21.6773 10.8187 21.8874C10.7636 22.0975 10.7512 22.3165 10.7822 22.5315C10.8133 22.7464 10.887 22.953 10.9993 23.1389C11.1115 23.3249 11.2598 23.4865 11.4355 23.6141C11.6112 23.7418 11.8108 23.8329 12.0223 23.8821C12.2338 23.9313 12.4531 23.9376 12.6671 23.9007C12.8811 23.8637 13.0856 23.7842 13.2683 23.6669C13.4511 23.5496 13.6085 23.3968 13.7312 23.2177L16.2378 19.7645L18.7444 23.2177C18.8671 23.3968 19.0245 23.5496 19.2073 23.6669C19.3901 23.7842 19.5945 23.8637 19.8085 23.9007C20.0225 23.9376 20.2418 23.9313 20.4533 23.8821C20.6649 23.8329 20.8644 23.7418 21.0401 23.6141C21.2158 23.4865 21.3642 23.3249 21.4764 23.1389C21.5886 22.953 21.6624 22.7464 21.6934 22.5315C21.7244 22.3165 21.712 22.0975 21.657 21.8874C21.6019 21.6773 21.5053 21.4804 21.3728 21.3083L18.8662 17.8552L22.9288 16.5369C23.3206 16.3911 23.6412 16.0999 23.8239 15.7239C24.0066 15.3478 24.0373 14.9158 23.9096 14.5177C23.782 14.1196 23.5058 13.7859 23.1385 13.5862C22.7712 13.3865 22.3411 13.336 21.9375 13.4453ZM43.4688 14.4894C43.3356 14.0831 43.0477 13.7458 42.6675 13.5503C42.2873 13.3549 41.8453 13.3172 41.4375 13.4453L37.375 14.7656V10.5C37.375 10.069 37.2038 9.6557 36.899 9.35095C36.5943 9.04621 36.181 8.875 35.75 8.875C35.319 8.875 34.9057 9.04621 34.601 9.35095C34.2962 9.6557 34.125 10.069 34.125 10.5V14.7656L30.0625 13.4473C29.6525 13.314 29.2064 13.349 28.8222 13.5446C28.438 13.7402 28.1473 14.0804 28.014 14.4904C27.8806 14.9004 27.9156 15.3465 28.1112 15.7307C28.3069 16.1148 28.6471 16.4056 29.057 16.5389L33.1195 17.8572L30.613 21.3103C30.4805 21.4824 30.3839 21.6793 30.3288 21.8894C30.2738 22.0995 30.2614 22.3185 30.2924 22.5335C30.3234 22.7484 30.3972 22.955 30.5094 23.141C30.6216 23.3269 30.77 23.4885 30.9457 23.6161C31.1214 23.7438 31.3209 23.8349 31.5325 23.8841C31.744 23.9334 31.9632 23.9397 32.1773 23.9027C32.3913 23.8658 32.5957 23.7863 32.7785 23.669C32.9613 23.5516 33.1187 23.3989 33.2414 23.2197L35.748 19.7666L38.2545 23.2197C38.3773 23.3989 38.5347 23.5516 38.7174 23.669C38.9002 23.7863 39.1047 23.8658 39.3187 23.9027C39.5327 23.9397 39.7519 23.9334 39.9635 23.8841C40.175 23.8349 40.3745 23.7438 40.5503 23.6161C40.726 23.4885 40.8743 23.3269 40.9865 23.141C41.0987 22.955 41.1725 22.7484 41.2035 22.5335C41.2346 22.3185 41.2222 22.0995 41.1671 21.8894C41.1121 21.6793 41.0154 21.4824 40.883 21.3103L38.3764 17.8572L42.4389 16.5389C42.8468 16.403 43.1841 16.111 43.3772 15.7269C43.5702 15.3427 43.6031 14.8977 43.4688 14.4894Z" fill="#059669"/>
</svg>
