<svg width="47" height="42" viewBox="0 0 47 42" fill="none" xmlns="http://www.w3.org/2000/svg">
<path d="M45.6002 34.2059L27.8369 3.35732C27.3931 2.60154 26.7594 1.97489 25.9987 1.53948C25.238 1.10406 24.3767 0.875 23.5002 0.875C22.6237 0.875 21.7625 1.10406 21.0018 1.53948C20.2411 1.97489 19.6074 2.60154 19.1635 3.35732L1.40023 34.2059C0.973127 34.9369 0.748047 35.7683 0.748047 36.615C0.748047 37.4616 0.973127 38.293 1.40023 39.024C1.83843 39.7844 2.47104 40.4145 3.23315 40.8496C3.99525 41.2847 4.85941 41.5092 5.73694 41.5001H41.2635C42.1404 41.5085 43.0037 41.2836 43.765 40.8486C44.5263 40.4135 45.1583 39.7838 45.5962 39.024C46.0239 38.2934 46.2497 37.4622 46.2504 36.6155C46.2511 35.7689 46.0267 34.9373 45.6002 34.2059ZM42.7829 37.397C42.628 37.6612 42.4057 37.8794 42.1387 38.0293C41.8717 38.1792 41.5697 38.2554 41.2635 38.2501H5.73694C5.43079 38.2554 5.12873 38.1792 4.86174 38.0293C4.59475 37.8794 4.37243 37.6612 4.21757 37.397C4.0773 37.1595 4.00331 36.8888 4.00331 36.6129C4.00331 36.3371 4.0773 36.0664 4.21757 35.8289L21.9809 4.98029C22.1388 4.71739 22.3622 4.49985 22.6291 4.34882C22.8961 4.19779 23.1976 4.11842 23.5043 4.11842C23.811 4.11842 24.1125 4.19779 24.3795 4.34882C24.6464 4.49985 24.8697 4.71739 25.0277 4.98029L42.791 35.8289C42.93 36.0671 43.0026 36.3382 43.0012 36.6141C42.9998 36.8899 42.9244 37.1603 42.7829 37.397ZM21.8752 25.2501V17.1251C21.8752 16.6942 22.0464 16.2808 22.3512 15.9761C22.6559 15.6713 23.0692 15.5001 23.5002 15.5001C23.9312 15.5001 24.3445 15.6713 24.6493 15.9761C24.954 16.2808 25.1252 16.6942 25.1252 17.1251V25.2501C25.1252 25.6811 24.954 26.0944 24.6493 26.3992C24.3445 26.7039 23.9312 26.8751 23.5002 26.8751C23.0692 26.8751 22.6559 26.7039 22.3512 26.3992C22.0464 26.0944 21.8752 25.6811 21.8752 25.2501ZM25.9377 32.5626C25.9377 33.0447 25.7948 33.516 25.5269 33.9168C25.2591 34.3177 24.8784 34.6301 24.433 34.8146C23.9876 34.9991 23.4975 35.0473 23.0247 34.9533C22.5519 34.8592 22.1175 34.6271 21.7767 34.2862C21.4358 33.9453 21.2036 33.511 21.1096 33.0382C21.0155 32.5653 21.0638 32.0752 21.2483 31.6298C21.4328 31.1844 21.7452 30.8038 22.146 30.5359C22.5469 30.2681 23.0181 30.1251 23.5002 30.1251C24.1467 30.1251 24.7667 30.3819 25.2238 30.8391C25.6809 31.2962 25.9377 31.9162 25.9377 32.5626Z" fill="#DC2626"/>
</svg>
